<svg xmlns="http://www.w3.org/2000/svg" width="180" height="180" viewBox="0 0 180 180" fill="none">
  <rect width="180" height="180" rx="40" fill="#0B0E14"/>
  <rect x="12" y="12" width="156" height="156" rx="30" fill="#121925"/>
  <path d="M38 130V50h13l24 25V50h12v80H74L50 106v24H38Z" fill="#F6F8FC"/>
  <path d="M102 50h48v80h-48V50Z" fill="#121925"/>
  <path d="M102 50h24v20h-24V50Zm24 0h24v20h-24V50Zm-24 20h24v20h-24V70Zm24 20h24v20h-24V90Zm-24 20h24v20h-24v-20Zm24 20h24v-20h-24v20Z" fill="#F6F8FC"/>
  <path d="M102 50h24v20h-24V50Zm24 20h24v20h-24V70Zm-24 40h24v20h-24v-20Z" fill="#1FE08F"/>
</svg>
