<svg xmlns="http://www.w3.org/2000/svg" width="180" height="180" viewBox="0 0 180 180" fill="none">
  <rect width="180" height="180" rx="40" fill="#0B0E14"/>
  <rect x="12" y="12" width="156" height="156" rx="30" fill="#121925"/>
  <path d="M42 36a4 4 0 1 1 8 0v108a4 4 0 1 1-8 0V36Z" fill="#F4F7FB"/>
  <path d="M51 46c19-9 37-9 53 0 16 9 32 9 48 0v69c-16 9-32 9-48 0-16-9-34-9-53 0V46Z" fill="#F4F7FB"/>
  <path d="M51 46c8.5-3.9 17.2-5.8 26-5.8V63H51V46Zm53.2-4.2c7.6.7 15.2 3 22.8 6.9V71h-22.8V41.8ZM77 40.2c9 0 18 1.9 27.2 5.7V71H77V40.2ZM77 71h27.2v29H77V71ZM51 63h26v29H51V63Zm76 8h22.8v29H127V71ZM77 100h27.2v27.5c-8.4-1.8-17.5-4.9-27.2-9.5V100Zm-26 0h26v18c-8.5 4.7-17.1 7.8-26 9.5V100Zm76 0h22.8v22.3c-7.6 3.9-15.2 6.2-22.8 6.9V100Z" fill="#0F1824"/>
  <path d="M51 46c8.5-3.9 17.2-5.8 26-5.8V63H51V46Zm76 25h22.8v29H127V71ZM77 100h27.2v27.5c-8.4-1.8-17.5-4.9-27.2-9.5V100Z" fill="#1FE08F"/>
</svg>
