<svg xmlns="http://www.w3.org/2000/svg" width="256" height="256" viewBox="0 0 256 256" fill="none">
  <rect width="256" height="256" rx="56" fill="#0B0E14"/>
  <rect x="18" y="18" width="220" height="220" rx="42" fill="url(#bg)"/>
  <path d="M60 174V82h14l26 27V82h13v92h-14l-26-26v26H60Z" fill="#F6F8FC"/>
  <path d="M136 82h62v92h-62V82Z" fill="#121925"/>
  <path d="M136 82h31v23h-31V82Zm31 0h31v23h-31V82Zm-31 23h31v23h-31v-23Zm31 23h31v23h-31v-23Zm-31 23h31v23h-31v-23Zm31 23h31v-23h-31v23Z" fill="#F6F8FC"/>
  <path d="M136 82h31v23h-31V82Zm31 23h31v23h-31v-23Zm-31 46h31v23h-31v-23Z" fill="#FF8A1F"/>
  <path d="M129 64h78" stroke="#5B8CFF" stroke-linecap="round" stroke-width="8"/>
  <path d="M129 192h58" stroke="#1FE08F" stroke-linecap="round" stroke-width="8"/>
  <defs>
    <linearGradient id="bg" x1="32" y1="26" x2="214" y2="226" gradientUnits="userSpaceOnUse">
      <stop stop-color="#111722"/>
      <stop offset="1" stop-color="#151D29"/>
    </linearGradient>
  </defs>
</svg>
