<svg xmlns="http://www.w3.org/2000/svg" width="64" height="64" viewBox="0 0 64 64" fill="none">
  <rect width="64" height="64" rx="16" fill="#0B0E14"/>
  <rect x="5" y="5" width="54" height="54" rx="12" fill="#121925"/>
  <path d="M16 14a2 2 0 1 1 4 0v36a2 2 0 1 1-4 0V14Z" fill="#F4F7FB"/>
  <path d="M21 18c7-3 13-3 19 0 6 3 12 3 18 0v24c-6 3-12 3-18 0-6-3-12-3-19 0V18Z" fill="#F4F7FB"/>
  <path d="M21 18c3.5-1.6 6.8-2.4 10-2.4v8.4H21V18Zm20-1.8c2.8.4 5.6 1.3 8.4 2.9v8.9H41v-11.8ZM31 15.6c3.5 0 6.8.8 10 2.2v10.2H31V15.6Zm0 12.4h10v10H31V28Zm-10-4h10v10H21V24Zm28.4 4v10H41V28h8.4ZM31 38h10v9.4c-3.1-.6-6.5-1.7-10-3.5V38Zm-10 0h10v5.9c-3.2 1.8-6.5 2.9-10 3.5V38Zm20 0h8.4v8.9c-2.8 1.6-5.6 2.5-8.4 2.9V38Z" fill="#0F1824"/>
  <path d="M21 18c3.5-1.6 6.8-2.4 10-2.4v8.4H21V18Zm20 10h8.4v10H41V28ZM31 38h10v9.4c-3.1-.6-6.5-1.7-10-3.5V38Z" fill="#FF8A1F"/>
</svg>
