<svg xmlns="http://www.w3.org/2000/svg" width="64" height="64" viewBox="0 0 64 64" fill="none">
  <rect width="64" height="64" rx="16" fill="#0B0E14"/>
  <rect x="5" y="5" width="54" height="54" rx="12" fill="#121925"/>
  <path d="M14 46V18h6l10 10.5V18h5v28h-6L19 35.5V46h-5Z" fill="#F6F8FC"/>
  <path d="M38 18h18v28H38V18Z" fill="#121925"/>
  <path d="M38 18h9v7h-9v-7Zm9 0h9v7h-9v-7Zm-9 7h9v7h-9v-7Zm9 7h9v7h-9v-7Zm-9 7h9v7h-9v-7Zm9 7h9v-7h-9v7Z" fill="#F6F8FC"/>
  <path d="M38 18h9v7h-9v-7Zm9 7h9v7h-9v-7Zm-9 14h9v7h-9v-7Z" fill="#FF8A1F"/>
</svg>
